<svg width="22" height="33" xmlns="http://www.w3.org/2000/svg"><g fill="none" fill-rule="evenodd"><path fill="#20E8D9" d="M11 0 7.906 1.768v3.367L3.094 7.83V4.462L0 6.23v6.734l11-6.23zm0 8.166-11 6.23v10.432c0 1.202.654 2.313 1.717 2.915L11 33V8.166Z"/><path fill="#1E66E2" d="m11 0 3.094 1.768v3.367l4.812 2.694V4.462L22 6.23v6.734l-11-6.23zm0 8.166 11 6.23v10.432a3.355 3.355 0 0 1-1.717 2.915L11 33V8.166Z"/><path fill="#000" d="M11 6.735.002 12.963l.926.907L11 8.166l10.072 5.704.926-.907z"/><path fill="#FFF" d="M2.922 23.487 11 28.117v1.516l-8.078-4.63zM11 13.133v-1.516L4.297 15.32l-1.375.76v5.724l1.375-.789L11 17.173v-1.515L4.297 19.5v-2.665z"/><path fill="#000" d="M19.078 17.594 11 13.133v-1.516l8.078 4.462zM11 15.658v1.515l6.703 3.842v3.26L11 28.117v1.516l8.078-4.63v-4.715z"/></g></svg>