<svg width="28" height="28" xmlns="http://www.w3.org/2000/svg" xmlns:xlink="http://www.w3.org/1999/xlink"><defs><path id="a" d="M0 0h28v28H0z"/></defs><g fill="none" fill-rule="evenodd"><mask id="b" fill="#fff"><use xlink:href="#a"/></mask><path d="M25.408 20.213c-3.429 4.59-10.805 3.03-15.501 3.262 0 0-.836.058-1.671.173 0 0 .317-.144.72-.289 3.313-1.154 4.87-1.385 6.886-2.424 3.775-1.935 7.55-6.178 8.298-10.566-1.44 4.215-5.82 7.852-9.796 9.324-2.737 1.01-7.664 1.992-7.664 1.992l-.202-.115c-3.342-1.646-3.458-8.92 2.65-11.259 2.68-1.039 5.216-.462 8.126-1.154 3.083-.722 6.656-3.031 8.096-6.063 1.614 4.879 3.573 12.442.058 17.119M6.507 24.399c-.404.52-1.153.577-1.671.173-.519-.404-.577-1.155-.173-1.674.403-.52 1.152-.578 1.67-.174.49.404.577 1.155.174 1.675M25.495 1.65a11.89 11.89 0 0 1-1.499 2.627C18.637-1.293 9.791-1.438 4.26 3.932-1.273 9.3-1.446 18.163 3.914 23.706c.173.202.374.375.576.548l.519.462c5.877 4.965 14.694 4.215 19.65-1.674a13.964 13.964 0 0 0 3.256-8.025c.403-3.493-.663-7.997-2.42-13.366" fill="#6DB33F" mask="url(#b)"/><path d="M25.408 20.213c-3.429 4.59-10.805 3.03-15.501 3.262 0 0-.836.058-1.671.173 0 0 .317-.144.72-.289 3.313-1.154 4.87-1.385 6.886-2.424 3.775-1.935 7.55-6.178 8.298-10.566-1.44 4.215-5.82 7.852-9.796 9.324-2.737 1.01-7.664 1.992-7.664 1.992l-.202-.115c-3.342-1.646-3.458-8.92 2.65-11.259 2.68-1.039 5.216-.462 8.126-1.154 3.083-.722 6.656-3.031 8.096-6.063 1.614 4.879 3.573 12.442.058 17.119M6.507 24.399c-.404.52-1.153.577-1.671.173-.519-.404-.577-1.155-.173-1.674.403-.52 1.152-.578 1.67-.174.49.404.577 1.155.174 1.675" fill="#FFF"/></g></svg>