<svg width="23" height="27" xmlns="http://www.w3.org/2000/svg"><defs><linearGradient x1="0%" y1="50%" x2="100%" y2="50%" id="a"><stop stop-color="#9163EA" offset="0%"/><stop stop-color="#00DDE5" offset="100%"/></linearGradient></defs><g fill="none" fill-rule="evenodd"><path d="M9.541 0H0v27h9.541C16.974 27 23 20.956 23 13.5S16.974 0 9.541 0" fill="url(#a)"/><path d="M12.655 6.095V4.181H9.14a2.817 2.817 0 0 0-2.812 2.82v12.896a2.817 2.817 0 0 0 2.812 2.821h3.515v-.604c0-.78-.63-1.41-1.406-1.41a1.408 1.408 0 0 1-1.406-1.411V7.506c0-.78.63-1.41 1.406-1.41h1.406Z" fill="#FFF"/></g></svg>