<svg width="29" height="14" xmlns="http://www.w3.org/2000/svg"><defs><linearGradient x1="19.328%" y1="50.037%" x2="193.874%" y2="50.037%" id="a"><stop stop-color="#4190FF" offset="0%"/><stop stop-color="#2EB9FA" offset="51%"/><stop stop-color="#1BE1F6" offset="100%"/></linearGradient><linearGradient x1="-61.639%" y1="50.001%" x2="82.406%" y2="50.001%" id="b"><stop stop-color="#4190FF" offset="0%"/><stop stop-color="#2EB9FA" offset="51%"/><stop stop-color="#1BE1F6" offset="100%"/></linearGradient></defs><g fill="none"><path d="M6.802 14c-3.074.002-5.766-2.12-6.567-5.176-.8-3.056.49-6.285 3.147-7.876 2.657-1.59 6.02-1.147 8.202 1.082l1.833 1.893-1.907 1.953L9.692 3.99A4.03 4.03 0 0 0 3.88 4c-1.603 1.654-1.603 4.332 0 5.986a4.03 4.03 0 0 0 5.812.011l1.877-1.933 1.907 1.954-1.867 1.933A6.656 6.656 0 0 1 6.802 14Z" fill="url(#a)"/><path d="M22.22 14a6.65 6.65 0 0 1-4.773-2.025l-4.777-4.99 4.738-4.93C19.582-.18 22.943-.635 25.604.948c2.66 1.583 3.959 4.807 3.165 7.864-.794 3.057-3.482 5.184-6.554 5.188h.005Zm-2.88-3.978a4.015 4.015 0 0 0 2.88 1.214c1.863.002 3.494-1.286 3.977-3.14.482-1.852-.305-3.808-1.92-4.766a4.025 4.025 0 0 0-4.967.679l-2.885 2.98 2.915 3.033Z" fill="url(#b)"/></g></svg>