<svg width="26" height="36" xmlns="http://www.w3.org/2000/svg"><path d="m13.957 18.67.032.002a.42.42 0 1 1-.07.838.42.42 0 0 1 .07-.838l-.032-.001Zm-1.347 0 .032.002a.42.42 0 1 1-.07.838.42.42 0 0 1 .07-.838l-.032-.001Zm-1.346 0 .031.002a.42.42 0 1 1-.07.839.42.42 0 0 1 .07-.84h-.031Zm1.378-2.209a2.635 2.635 0 0 0-2.576 2.63 2.635 2.635 0 0 0 2.576 2.63 2.64 2.64 0 0 0 2.338-1.296 2.623 2.623 0 0 0 0-2.667 2.64 2.64 0 0 0-2.338-1.297Zm5.072-2.63c.566.564.667 1.444.243 2.122a1.724 1.724 0 0 1-2.02.714l-.531.529a3.32 3.32 0 0 1-.208 4.056l.495.673a2.174 2.174 0 0 1 2.896 2.045 2.167 2.167 0 0 1-1.429 2.032 2.179 2.179 0 0 1-2.406-.638 2.162 2.162 0 0 1-.227-2.472l-.543-.74a3.347 3.347 0 0 1-3.513-.517l-.607.524a1.296 1.296 0 0 1-.591 1.378 1.305 1.305 0 0 1-1.5-.098 1.295 1.295 0 0 1-.408-1.442 1.301 1.301 0 0 1 1.228-.864c.156 0 .304.032.442.083l.646-.56a3.317 3.317 0 0 1 .292-3.584l-.679-.736c-.05.007-.098.016-.147.016-.47 0-.89-.295-1.045-.737a1.1 1.1 0 0 1 .351-1.226 1.108 1.108 0 0 1 1.277-.075 1.1 1.1 0 0 1 .494 1.176l.685.743a3.345 3.345 0 0 1 3.38-.054l.58-.577c-.26-.756.036-1.59.716-2.014a1.725 1.725 0 0 1 2.129.242ZM13 2.981c-2.4 3.16-7.061 10.34-7.061 18.437 0 2.342.44 4.304.886 5.689h12.35c.445-1.385.886-3.347.886-5.69C20.061 13.32 15.4 6.14 13 2.981ZM23.19 24.92l2.328 2.258.482 2.947h-4.347c.628-.938 1.538-3.16 1.538-5.205Zm-20.38.001c0 2.045.908 4.268 1.537 5.206H0l.482-2.948 2.327-2.258ZM13 0c.003.003 8.952 9.67 8.952 21.419 0 5.334-2.05 8.854-2.05 8.854l-2.194-1.28H8.292l-2.194 1.28s-2.05-3.52-2.05-8.854C4.048 9.669 12.997.003 13 0Zm0 36c-2.844-2.632-2.728-5.615-2.728-5.615h5.456S15.844 33.368 13 36Z" fill="#FF6A00" fill-rule="evenodd"/></svg>